<svg width="22" height="22" viewBox="0 0 22 22" fill="none" xmlns="http://www.w3.org/2000/svg">
<path d="M7.15004 1.83333H14.85C17.7834 1.83333 20.1667 4.21667 20.1667 7.15V14.85C20.1667 16.2601 19.6066 17.6124 18.6095 18.6095C17.6124 19.6065 16.2601 20.1667 14.85 20.1667H7.15004C4.21671 20.1667 1.83337 17.7833 1.83337 14.85V7.15C1.83337 5.73993 2.39352 4.38762 3.39059 3.39055C4.38766 2.39348 5.73997 1.83333 7.15004 1.83333ZM6.96671 3.66667C6.09149 3.66667 5.25213 4.01434 4.63326 4.63322C4.01438 5.25209 3.66671 6.09145 3.66671 6.96667V15.0333C3.66671 16.8575 5.14254 18.3333 6.96671 18.3333H15.0334C15.9086 18.3333 16.748 17.9857 17.3668 17.3668C17.9857 16.7479 18.3334 15.9085 18.3334 15.0333V6.96667C18.3334 5.1425 16.8575 3.66667 15.0334 3.66667H6.96671ZM15.8125 5.04167C16.1164 5.04167 16.4079 5.16239 16.6228 5.37727C16.8377 5.59216 16.9584 5.88361 16.9584 6.1875C16.9584 6.49139 16.8377 6.78284 16.6228 6.99773C16.4079 7.21261 16.1164 7.33333 15.8125 7.33333C15.5086 7.33333 15.2172 7.21261 15.0023 6.99773C14.7874 6.78284 14.6667 6.49139 14.6667 6.1875C14.6667 5.88361 14.7874 5.59216 15.0023 5.37727C15.2172 5.16239 15.5086 5.04167 15.8125 5.04167ZM11 6.41667C12.2156 6.41667 13.3814 6.89955 14.2409 7.75909C15.1005 8.61864 15.5834 9.78443 15.5834 11C15.5834 12.2156 15.1005 13.3814 14.2409 14.2409C13.3814 15.1004 12.2156 15.5833 11 15.5833C9.78447 15.5833 8.61868 15.1004 7.75913 14.2409C6.89959 13.3814 6.41671 12.2156 6.41671 11C6.41671 9.78443 6.89959 8.61864 7.75913 7.75909C8.61868 6.89955 9.78447 6.41667 11 6.41667ZM11 8.25C10.2707 8.25 9.57122 8.53973 9.0555 9.05546C8.53977 9.57118 8.25004 10.2707 8.25004 11C8.25004 11.7293 8.53977 12.4288 9.0555 12.9445C9.57122 13.4603 10.2707 13.75 11 13.75C11.7294 13.75 12.4289 13.4603 12.9446 12.9445C13.4603 12.4288 13.75 11.7293 13.75 11C13.75 10.2707 13.4603 9.57118 12.9446 9.05546C12.4289 8.53973 11.7294 8.25 11 8.25Z" fill="url(#paint0_linear_7_61)"/>
<defs>
<linearGradient id="paint0_linear_7_61" x1="11" y1="1.83333" x2="11" y2="20.1667" gradientUnits="userSpaceOnUse">
<stop stop-color="#F07944"/>
<stop offset="0.509615" stop-color="#EB4784"/>
</linearGradient>
</defs>
</svg>
